<svg width="40" height="40" viewBox="0 0 40 40" fill="none" xmlns="http://www.w3.org/2000/svg">
<path d="M0 20C0 8.95431 8.95431 0 20 0C31.0457 0 40 8.95431 40 20C40 31.0457 31.0457 40 20 40C8.95431 40 0 31.0457 0 20Z" fill="#32373D"/>
<path d="M24.5 12.5H22.25C21.2554 12.5 20.3016 12.8951 19.5983 13.5983C18.8951 14.3016 18.5 15.2554 18.5 16.25V18.5H16.25V21.5H18.5V27.5H21.5V21.5H23.75L24.5 18.5H21.5V16.25C21.5 16.0511 21.579 15.8603 21.7197 15.7197C21.8603 15.579 22.0511 15.5 22.25 15.5H24.5V12.5Z" stroke="white" stroke-width="2" stroke-linecap="round" stroke-linejoin="round"/>
</svg>
