<svg width="40" height="40" viewBox="0 0 40 40" fill="none" xmlns="http://www.w3.org/2000/svg">
<path d="M0 20C0 8.95431 8.95431 0 20 0C31.0457 0 40 8.95431 40 20C40 31.0457 31.0457 40 20 40C8.95431 40 0 31.0457 0 20Z" fill="#32373D"/>
<g clip-path="url(#clip0_405_2748)">
<path d="M23.75 12.5H16.25C14.1789 12.5 12.5 14.1789 12.5 16.25V23.75C12.5 25.8211 14.1789 27.5 16.25 27.5H23.75C25.8211 27.5 27.5 25.8211 27.5 23.75V16.25C27.5 14.1789 25.8211 12.5 23.75 12.5Z" stroke="white" stroke-width="2" stroke-linecap="round" stroke-linejoin="round"/>
<path d="M23.0008 19.5277C23.0933 20.1519 22.9867 20.7894 22.6961 21.3495C22.4055 21.9096 21.9456 22.3638 21.382 22.6475C20.8183 22.9312 20.1796 23.0299 19.5566 22.9297C18.9336 22.8294 18.3581 22.5353 17.9119 22.0891C17.4657 21.6429 17.1716 21.0674 17.0713 20.4444C16.9711 19.8214 17.0698 19.1826 17.3535 18.619C17.6372 18.0554 18.0914 17.5955 18.6515 17.3049C19.2116 17.0143 19.8491 16.9077 20.4733 17.0002C21.1099 17.0946 21.6994 17.3913 22.1545 17.8465C22.6097 18.3016 22.9063 18.891 23.0008 19.5277Z" stroke="white" stroke-width="2" stroke-linecap="round" stroke-linejoin="round"/>
<path d="M24.125 15.875H24.1325" stroke="white" stroke-width="2" stroke-linecap="round" stroke-linejoin="round"/>
</g>
<defs>
<clipPath id="clip0_405_2748">
<rect width="18" height="18" fill="white" transform="translate(11 11)"/>
</clipPath>
</defs>
</svg>
