<svg width="171" height="48" viewBox="0 0 171 48" fill="none" xmlns="http://www.w3.org/2000/svg">
<path d="M0.48 36H4.92L7.8 14.28H7.88L10.76 36H14.8L10.56 8H4.72L0.48 36Z" fill="black"/>
<path d="M17.64 8H24.16C26.4267 8 28.08 8.53333 29.12 9.6C30.16 10.64 30.68 12.2533 30.68 14.44V16.16C30.68 19.0667 29.72 20.9067 27.8 21.68V21.76C28.8667 22.08 29.6133 22.7333 30.04 23.72C30.4933 24.7067 30.72 26.0267 30.72 27.68V32.6C30.72 33.4 30.7467 34.0533 30.8 34.56C30.8533 35.04 30.9867 35.52 31.2 36H26.72C26.56 35.5467 26.4533 35.12 26.4 34.72C26.3467 34.32 26.32 33.6 26.32 32.56V27.44C26.32 26.16 26.1067 25.2667 25.68 24.76C25.28 24.2533 24.5733 24 23.56 24H22.04V36H17.64V8ZM23.64 20C24.52 20 25.1733 19.7733 25.6 19.32C26.0533 18.8667 26.28 18.1067 26.28 17.04V14.88C26.28 13.8667 26.0933 13.1333 25.72 12.68C25.3733 12.2267 24.8133 12 24.04 12H22.04V20H23.64ZM39.9728 36.4C37.8661 36.4 36.2528 35.8 35.1328 34.6C34.0395 33.4 33.4928 31.7067 33.4928 29.52V14.48C33.4928 12.2933 34.0395 10.6 35.1328 9.4C36.2528 8.2 37.8661 7.6 39.9728 7.6C42.0795 7.6 43.6795 8.2 44.7728 9.4C45.8928 10.6 46.4528 12.2933 46.4528 14.48V17.44H42.2928V14.2C42.2928 12.4667 41.5595 11.6 40.0928 11.6C38.6261 11.6 37.8928 12.4667 37.8928 14.2V29.84C37.8928 31.5467 38.6261 32.4 40.0928 32.4C41.5595 32.4 42.2928 31.5467 42.2928 29.84V25.56H46.4528V29.52C46.4528 31.7067 45.8928 33.4 44.7728 34.6C43.6795 35.8 42.0795 36.4 39.9728 36.4ZM52.5253 12H47.9253V8H61.5253V12H56.9253V36H52.5253V12ZM63.6556 8H68.0556V36H63.6556V8ZM77.5509 36.4C75.4443 36.4 73.8309 35.8 72.7109 34.6C71.6176 33.4 71.0709 31.7067 71.0709 29.52V14.48C71.0709 12.2933 71.6176 10.6 72.7109 9.4C73.8309 8.2 75.4443 7.6 77.5509 7.6C79.6576 7.6 81.2576 8.2 82.3509 9.4C83.4709 10.6 84.0309 12.2933 84.0309 14.48V17.44H79.8709V14.2C79.8709 12.4667 79.1376 11.6 77.6709 11.6C76.2043 11.6 75.4709 12.4667 75.4709 14.2V29.84C75.4709 31.5467 76.2043 32.4 77.6709 32.4C79.1376 32.4 79.8709 31.5467 79.8709 29.84V25.56H84.0309V29.52C84.0309 31.7067 83.4709 33.4 82.3509 34.6C81.2576 35.8 79.6576 36.4 77.5509 36.4ZM99.3097 36.4C97.1764 36.4 95.5497 35.8 94.4297 34.6C93.3097 33.3733 92.7497 31.6267 92.7497 29.36V14.64C92.7497 12.3733 93.3097 10.64 94.4297 9.44C95.5497 8.21333 97.1764 7.6 99.3097 7.6C101.443 7.6 103.07 8.21333 104.19 9.44C105.31 10.64 105.87 12.3733 105.87 14.64V17.04H101.71V14.36C101.71 12.52 100.95 11.6 99.4297 11.6C97.9097 11.6 97.1497 12.52 97.1497 14.36V29.68C97.1497 31.4933 97.9097 32.4 99.4297 32.4C100.95 32.4 101.71 31.4933 101.71 29.68V24.2H99.5097V20.2H105.87V29.36C105.87 31.6267 105.31 33.3733 104.19 34.6C103.07 35.8 101.443 36.4 99.3097 36.4ZM108.695 8H115.215C117.481 8 119.135 8.53333 120.175 9.6C121.215 10.64 121.735 12.2533 121.735 14.44V16.16C121.735 19.0667 120.775 20.9067 118.855 21.68V21.76C119.921 22.08 120.668 22.7333 121.095 23.72C121.548 24.7067 121.775 26.0267 121.775 27.68V32.6C121.775 33.4 121.801 34.0533 121.855 34.56C121.908 35.04 122.041 35.52 122.255 36H117.775C117.615 35.5467 117.508 35.12 117.455 34.72C117.401 34.32 117.375 33.6 117.375 32.56V27.44C117.375 26.16 117.161 25.2667 116.735 24.76C116.335 24.2533 115.628 24 114.615 24H113.095V36H108.695V8ZM114.695 20C115.575 20 116.228 19.7733 116.655 19.32C117.108 18.8667 117.335 18.1067 117.335 17.04V14.88C117.335 13.8667 117.148 13.1333 116.775 12.68C116.428 12.2267 115.868 12 115.095 12H113.095V20H114.695ZM131.188 36.4C129.028 36.4 127.374 35.7867 126.228 34.56C125.081 33.3333 124.507 31.6 124.507 29.36V14.64C124.507 12.4 125.081 10.6667 126.228 9.44C127.374 8.21333 129.028 7.6 131.188 7.6C133.348 7.6 135.001 8.21333 136.148 9.44C137.294 10.6667 137.868 12.4 137.868 14.64V29.36C137.868 31.6 137.294 33.3333 136.148 34.56C135.001 35.7867 133.348 36.4 131.188 36.4ZM131.188 32.4C132.708 32.4 133.467 31.48 133.467 29.64V14.36C133.467 12.52 132.708 11.6 131.188 11.6C129.668 11.6 128.908 12.52 128.908 14.36V29.64C128.908 31.48 129.668 32.4 131.188 32.4ZM147.243 36.4C145.11 36.4 143.483 35.8 142.363 34.6C141.243 33.3733 140.683 31.6267 140.683 29.36V8H145.083V29.68C145.083 30.64 145.27 31.3333 145.643 31.76C146.043 32.1867 146.603 32.4 147.323 32.4C148.043 32.4 148.59 32.1867 148.963 31.76C149.363 31.3333 149.563 30.64 149.563 29.68V8H153.803V29.36C153.803 31.6267 153.243 33.3733 152.123 34.6C151.003 35.8 149.376 36.4 147.243 36.4ZM156.937 8H163.417C165.604 8 167.244 8.58667 168.337 9.76C169.43 10.9333 169.977 12.6533 169.977 14.92V17.68C169.977 19.9467 169.43 21.6667 168.337 22.84C167.244 24.0133 165.604 24.6 163.417 24.6H161.337V36H156.937V8ZM163.417 20.6C164.137 20.6 164.67 20.4 165.017 20C165.39 19.6 165.577 18.92 165.577 17.96V14.64C165.577 13.68 165.39 13 165.017 12.6C164.67 12.2 164.137 12 163.417 12H161.337V20.6H163.417Z" fill="black"/>
</svg>
